<svg xmlns="http://www.w3.org/2000/svg" width="1440" height="900" viewBox="0 0 1440 900" role="img" aria-labelledby="title desc">
  <title id="title">ML System Thoughts website design board</title>
  <desc id="desc">Personal website board with GitHub avatar navigation, welcome heading, integrated hero title, and Current row.</desc>
  <defs>
    <linearGradient id="inferenceSplit" x1="0" y1="0" x2="0.38" y2="1">
      <stop offset="0%" stop-color="#30a2ff"/>
      <stop offset="49%" stop-color="#30a2ff"/>
      <stop offset="50%" stop-color="#a5300f"/>
      <stop offset="100%" stop-color="#a5300f"/>
    </linearGradient>
  </defs>
  <rect width="1440" height="900" fill="#111111"/>
  <g fill="#fbfaf6" font-family="-apple-system, BlinkMacSystemFont, 'SF Pro Text', 'Segoe UI', sans-serif">
    <circle cx="180" cy="58" r="22" fill="#fbfaf6" stroke="#fbfaf6" stroke-width="3"/>
    <circle cx="180" cy="58" r="16" fill="#162530"/>
    <text x="230" y="66" font-family="Georgia, 'Times New Roman', serif" font-size="19" font-weight="700">Blog</text>
    <text x="294" y="66" font-family="Georgia, 'Times New Roman', serif" font-size="19" font-weight="700">Projects</text>
    <circle cx="1248" cy="58" r="10" fill="none" stroke="#fbfaf6" stroke-width="3"/>
    <path d="m1256 66 11 11" stroke="#fbfaf6" stroke-width="3" stroke-linecap="round"/>
    <path d="M1313 52a23 23 0 1 0 24 24 28 28 0 0 1-24-24z" fill="none" stroke="#fbfaf6" stroke-width="3" stroke-linejoin="round"/>
  </g>
  <g transform="translate(160 116)" font-family="-apple-system, BlinkMacSystemFont, 'SF Pro Text', 'Segoe UI', sans-serif" fill="#fbfaf6">
    <text x="0" y="10" font-size="20" font-weight="800">Welcome To My Website! 🥳</text>
  </g>
  <g transform="translate(160 156)">
    <text x="0" y="118" fill="#64737c" font-family="-apple-system, BlinkMacSystemFont, 'SF Pro Text', 'Segoe UI', sans-serif" font-size="13" font-weight="800">WELCOME TO MY WEBSITE ! HERE IS MY</text>
    <text x="0" y="210" fill="#162530" font-family="Georgia" font-size="86" font-weight="700">ML System</text>
    <text x="0" y="294" fill="#162530" font-family="Georgia" font-size="86" font-weight="700">Thoughts</text>
    <text x="0" y="340" fill="#64737c" font-family="-apple-system, BlinkMacSystemFont, 'SF Pro Text', 'Segoe UI', sans-serif" font-size="24" font-weight="600">ABOUT <tspan fill="#cd6e58" font-weight="760">AGENT</tspan>, <tspan fill="url(#inferenceSplit)" font-weight="760">INFERENCE</tspan> AND <tspan fill="#76b900" font-weight="760">CUDA</tspan> KERNEL</text>
    <text x="0" y="390" fill="#162530" font-family="-apple-system, BlinkMacSystemFont, 'SF Pro Text', 'Segoe UI', sans-serif" font-size="18" font-weight="800">Start Reading</text>
    <path d="M0 410 L6 414 L13 414 L20 409 L27 411 L34 408 L41 411 L48 411 L55 415 L62 410 L69 410 L76 414 L84 410 L92 412 L100 409 L108 411" fill="none" stroke="#f28c28" stroke-width="2.4" stroke-linecap="square" stroke-linejoin="round"/>
  </g>
  <g transform="translate(916 156)">
    <rect width="364" height="420" rx="12" fill="#fbfaf6" stroke="#d9d8d2"/>
    <circle cx="22" cy="23" r="4" fill="#526cff"/>
    <circle cx="36" cy="23" r="4" fill="#b9c3ca"/>
    <circle cx="50" cy="23" r="4" fill="#b9c3ca"/>
    <text x="42" y="104" fill="#64737c" font-family="-apple-system, BlinkMacSystemFont, 'SF Pro Text', 'Segoe UI', sans-serif" font-size="13" font-weight="800">NOW</text>
    <text x="42" y="172" fill="#162530" font-family="Georgia" font-size="54" font-weight="700">Deep in</text>
    <text x="42" y="228" fill="#162530" font-family="Georgia" font-size="54" font-weight="700">vLLM</text>
    <text x="42" y="284" fill="#64737c" font-family="-apple-system, BlinkMacSystemFont, 'SF Pro Text', 'Segoe UI', sans-serif" font-size="20" font-weight="600">PagedAttention, scheduler internals, serving paths, and source notes.</text>
    <rect x="42" y="342" width="52" height="6" rx="3" fill="#1747ff"/>
  </g>
  <g transform="translate(160 628)" font-family="-apple-system, BlinkMacSystemFont, 'SF Pro Text', 'Segoe UI', sans-serif" fill="#fbfaf6">
    <rect width="48" height="5" rx="3" fill="#1747ff"/>
    <text x="64" y="10" font-size="20" font-weight="800">Current</text>
  </g>
  <g transform="translate(160 672)" font-family="Georgia" fill="#162530">
    <g>
      <rect width="346" height="160" rx="12" fill="#fbfaf6" stroke="#d9d8d2"/>
      <circle cx="22" cy="23" r="4" fill="#526cff"/>
      <circle cx="36" cy="23" r="4" fill="#b9c3ca"/>
      <circle cx="50" cy="23" r="4" fill="#b9c3ca"/>
      <text x="36" y="90" font-size="36" font-weight="700">vLLM notes</text>
      <rect x="36" y="118" width="46" height="5" rx="3" fill="#1747ff"/>
    </g>
    <g transform="translate(386 0)">
      <rect width="346" height="160" rx="12" fill="#fbfaf6" stroke="#d9d8d2"/>
      <circle cx="22" cy="23" r="4" fill="#526cff"/>
      <circle cx="36" cy="23" r="4" fill="#b9c3ca"/>
      <circle cx="50" cy="23" r="4" fill="#b9c3ca"/>
      <text x="36" y="90" font-size="36" font-weight="700">SGLang basics</text>
      <rect x="36" y="118" width="46" height="5" rx="3" fill="#1747ff"/>
    </g>
    <g transform="translate(772 0)">
      <rect width="346" height="160" rx="12" fill="#fbfaf6" stroke="#d9d8d2"/>
      <circle cx="22" cy="23" r="4" fill="#526cff"/>
      <circle cx="36" cy="23" r="4" fill="#b9c3ca"/>
      <circle cx="50" cy="23" r="4" fill="#b9c3ca"/>
      <text x="36" y="90" font-size="36" font-weight="700">MLX workflow</text>
      <rect x="36" y="118" width="46" height="5" rx="3" fill="#1747ff"/>
    </g>
  </g>
  <text x="160" y="870" fill="rgba(251,250,246,.62)" font-family="-apple-system, BlinkMacSystemFont, 'SF Pro Text', 'Segoe UI', sans-serif" font-size="15">© 2024-2026 dman · Powered by Codex</text>
</svg>
